<?xml version="1.0" standalone="no"?>
<!DOCTYPE svg PUBLIC "-//W3C//DTD SVG 20010904//EN"
 "http://www.w3.org/TR/2001/REC-SVG-20010904/DTD/svg10.dtd">
<svg version="1.0" xmlns="http://www.w3.org/2000/svg"
 width="500.000000pt" height="500.000000pt" viewBox="0 0 500.000000 500.000000"
 preserveAspectRatio="xMidYMid meet">

<g transform="translate(0.000000,500.000000) scale(0.100000,-0.100000)"
fill="#000000" stroke="none">
<path d="M1570 3761 c-13 -25 -11 -83 4 -146 l13 -50 8 53 8 52 72 0 c40 0 87
-3 104 -6 30 -6 31 -8 31 -63 l1 -56 15 42 c12 34 12 48 2 79 -16 47 -43 62
-129 70 -38 4 -75 14 -91 25 -27 19 -27 19 -38 0z"/>
<path d="M2981 3736 c-18 -14 -39 -33 -46 -43 -20 -30 -26 -108 -10 -150 9
-24 14 -31 15 -18 l1 20 16 -20 16 -20 -8 20 c-4 11 -10 39 -12 62 -5 36 -2
44 13 49 11 3 30 11 44 17 14 6 45 10 70 8 80 -4 80 -4 80 -82 0 -39 4 -69 10
-69 6 0 10 7 10 15 0 18 20 20 21 3 2 -29 17 41 18 85 1 50 -36 126 -62 128
-6 0 -23 2 -37 5 -101 16 -104 16 -139 -10z"/>
<path d="M2272 3559 c-140 -23 -278 -96 -374 -197 -144 -151 -208 -330 -187
-521 25 -229 138 -407 330 -523 96 -58 175 -80 307 -86 161 -6 271 23 398 104
l52 32 28 -29 c26 -27 26 -30 11 -47 -9 -10 -17 -27 -17 -38 0 -24 548 -574
572 -574 19 0 208 184 208 202 0 18 -562 578 -579 578 -8 0 -24 -9 -36 -20
l-21 -20 -28 29 -28 29 36 59 c54 87 86 176 99 271 9 67 16 90 35 109 24 24
24 27 17 126 -5 56 -9 131 -10 167 -1 36 -6 73 -10 83 -7 17 -8 17 -20 0 -8
-10 -11 -30 -8 -45 7 -37 -7 -182 -17 -172 -4 5 -15 33 -25 62 -24 75 -104
191 -178 257 -143 130 -364 196 -555 164z m233 -134 c101 -26 183 -72 255
-144 163 -164 207 -410 110 -616 -29 -61 -88 -145 -102 -145 -4 0 -8 33 -8 73
0 39 -5 89 -11 110 -10 36 -72 117 -89 117 -5 0 -39 18 -77 40 -61 35 -69 37
-74 21 -4 -10 4 -41 21 -77 42 -88 60 -170 59 -270 -1 -122 -7 -136 -54 -152
-57 -20 -190 -26 -260 -13 -179 34 -340 168 -406 339 -31 80 -38 246 -14 327
55 192 209 345 391 389 79 19 186 19 259 1z m710 -1485 c-14 -13 -33 3 -177
147 -143 143 -160 164 -148 178 12 14 31 -2 177 -147 145 -145 161 -164 148
-178z m102 -72 c18 -18 33 -37 33 -44 0 -27 -30 -20 -64 15 -28 29 -33 40 -24
49 17 17 18 16 55 -20z"/>
<path d="M2335 3393 c-73 -19 -122 -134 -95 -223 7 -24 7 -23 15 13 4 20 11
37 16 37 5 0 9 6 9 13 0 7 13 28 28 45 27 30 33 32 100 32 66 0 73 -2 88 -26
9 -14 22 -50 28 -81 l11 -56 14 62 c12 54 12 66 -3 104 -23 59 -57 81 -131 84
-33 1 -69 -1 -80 -4z"/>
<path d="M2564 1750 c-42 -17 -35 -83 10 -94 33 -8 76 9 77 31 2 26 -2 47 -9
55 -13 12 -57 17 -78 8z"/>
<path d="M740 1697 l25 -13 3 -206 2 -207 -27 -15 c-26 -14 -21 -15 82 -15
103 0 108 1 83 15 -28 14 -28 16 -28 109 l0 95 34 0 c18 0 39 -6 45 -13 6 -8
18 -49 27 -93 20 -101 45 -129 112 -121 24 3 51 13 61 22 15 16 15 17 -5 11
-28 -9 -39 7 -55 77 -16 74 -39 104 -87 113 l-37 7 42 14 c122 41 127 189 7
222 -22 6 -100 11 -174 11 -115 0 -131 -2 -110 -13z m235 -22 c21 -20 25 -34
25 -85 0 -75 -27 -110 -85 -110 l-35 0 0 98 c0 63 4 102 12 110 19 19 57 14
83 -13z"/>
<path d="M2960 1697 l25 -13 3 -206 2 -207 -27 -15 c-26 -14 -13 -15 160 -16
l187 0 0 80 c0 44 -4 80 -8 80 -4 0 -13 -21 -20 -46 -19 -71 -49 -94 -122 -94
l-60 0 0 105 c0 103 0 105 23 105 26 0 55 -27 74 -68 10 -23 11 -13 12 71 1
53 -1 97 -4 97 -2 0 -12 -16 -21 -36 -15 -31 -46 -54 -75 -54 -5 0 -9 46 -9
105 0 104 0 105 25 111 66 16 128 -22 146 -90 14 -48 16 -43 21 42 l4 62 -180
0 c-153 0 -177 -2 -156 -13z"/>
<path d="M2788 1678 c-34 -9 -37 -13 -40 -51 -3 -37 -6 -43 -33 -48 l-30 -7
33 -1 32 -1 0 -144 c0 -167 7 -183 77 -193 38 -5 45 -2 74 26 17 18 28 35 24
39 -3 4 -11 -1 -16 -11 -12 -21 -55 -22 -63 -1 -3 9 -6 76 -6 150 l0 134 43 1
42 2 -40 6 -40 6 -3 53 c-2 28 -6 52 -10 51 -4 -1 -24 -5 -44 -11z"/>
<path d="M1253 1570 c-93 -56 -100 -248 -12 -313 60 -44 152 -30 198 29 32 41
27 64 -7 31 -20 -19 -39 -27 -64 -27 -57 0 -88 43 -88 121 l0 39 94 0 93 0 -7
38 c-4 20 -11 45 -15 55 -20 47 -133 63 -192 27z m114 -20 c7 -14 13 -40 13
-57 0 -33 0 -33 -51 -33 l-52 0 6 41 c10 73 58 101 84 49z"/>
<path d="M1582 1570 c-116 -71 -103 -282 21 -329 63 -24 133 -1 168 56 27 43
19 52 -15 18 -21 -21 -34 -26 -68 -23 -62 5 -83 39 -82 131 0 41 6 85 15 102
17 35 59 61 83 52 16 -6 16 -9 -3 -33 -25 -32 -26 -47 -5 -68 23 -24 61 -20
80 8 13 21 14 29 2 53 -7 15 -24 33 -38 40 -39 20 -120 16 -158 -7z"/>
<path d="M1860 1580 c-30 -4 -47 -7 -37 -8 27 -3 37 -44 37 -160 0 -126 -5
-146 -33 -160 -17 -8 2 -11 81 -11 66 -1 101 3 97 9 -3 6 -13 10 -20 10 -26 0
-35 37 -35 140 0 105 13 151 45 164 24 9 24 9 12 -23 -14 -37 3 -61 42 -61 35
0 51 17 51 55 0 40 -16 55 -59 55 -24 0 -43 -8 -63 -27 l-28 -27 0 27 c0 29 4
29 -90 17z"/>
<path d="M2156 1583 c-46 -4 -48 -5 -27 -19 19 -14 21 -24 21 -133 0 -65 5
-132 11 -149 20 -57 114 -69 165 -21 l24 22 0 -24 c0 -24 1 -24 72 -20 69 3
72 4 51 18 -22 15 -23 21 -23 176 l0 160 -37 -7 c-21 -3 -54 -6 -73 -6 -34 0
-34 0 -12 -16 21 -14 22 -22 22 -138 0 -109 -2 -125 -20 -144 -12 -12 -29 -22
-38 -22 -37 0 -42 19 -42 177 0 153 0 153 -22 151 -13 -1 -45 -3 -72 -5z"/>
<path d="M2556 1583 c-46 -4 -48 -5 -27 -19 20 -14 21 -24 21 -153 0 -132 -1
-139 -22 -154 -22 -15 -17 -16 72 -16 89 0 94 1 73 16 -22 15 -23 21 -23 174
0 159 0 159 -22 157 -13 -1 -45 -3 -72 -5z"/>
<path d="M3414 1576 c-31 -14 -44 -33 -44 -64 1 -44 49 -63 79 -33 26 26 26
46 2 70 -17 17 -17 20 -4 25 25 10 51 7 67 -9 12 -12 15 -42 15 -137 0 -74 -4
-127 -10 -135 -20 -23 -58 -16 -69 13 -15 37 -3 70 37 100 19 14 32 28 30 30
-8 8 -113 -40 -139 -65 -34 -31 -38 -81 -8 -111 27 -27 98 -27 133 0 l26 21
11 -21 c8 -16 21 -20 59 -20 30 0 53 6 60 14 10 12 9 13 -7 9 -19 -4 -20 3
-24 137 -3 141 -4 142 -31 166 -23 20 -39 24 -90 24 -34 -1 -76 -7 -93 -14z"/>
<path d="M3731 1564 c-23 -19 -31 -34 -31 -57 0 -32 32 -97 48 -97 5 0 29 -20
55 -45 65 -62 62 -115 -5 -115 -36 0 -64 29 -78 79 -6 23 -13 41 -15 41 -3 0
-5 -30 -5 -66 0 -53 3 -64 13 -56 9 8 25 7 58 -5 54 -20 108 -12 146 21 22 19
28 33 28 66 0 43 -14 61 -124 152 -53 45 -31 110 33 94 20 -5 33 -19 47 -51
11 -25 22 -45 24 -45 3 0 5 25 5 56 0 48 -2 55 -14 45 -11 -9 -20 -9 -35 -2
-11 6 -42 11 -70 11 -39 0 -56 -6 -80 -26z"/>
<path d="M4073 1574 c-49 -24 -75 -74 -80 -152 -8 -123 57 -198 161 -189 42 4
55 10 83 41 39 43 47 79 8 40 -20 -20 -33 -25 -67 -22 -52 4 -79 37 -86 107
l-5 51 97 0 c85 0 96 2 96 18 -1 29 -37 100 -58 111 -30 16 -112 13 -149 -5z
m101 -16 c9 -12 16 -39 16 -60 l0 -38 -51 0 -51 0 7 38 c8 45 30 82 50 82 7 0
21 -10 29 -22z"/>
</g>
</svg>
